<?xml version="1.0" encoding="UTF-8" standalone="no"?>
<svg
   class="svg-icon"
   style="overflow:hidden;fill:currentColor"
   viewBox="0 0 790 790"
   version="1.1"
   id="svg12"
   sodipodi:docname="meteovache_pi.svg"
   width="790"
   height="790"
   inkscape:version="1.1.2 (0a00cf5339, 2022-02-04)"
   xmlns:inkscape="http://www.inkscape.org/namespaces/inkscape"
   xmlns:sodipodi="http://sodipodi.sourceforge.net/DTD/sodipodi-0.dtd"
   xmlns="http://www.w3.org/2000/svg"
   xmlns:svg="http://www.w3.org/2000/svg">
  <defs
     id="defs16" />
  <sodipodi:namedview
     id="namedview14"
     pagecolor="#ffffff"
     bordercolor="#666666"
     borderopacity="1.0"
     inkscape:pageshadow="2"
     inkscape:pageopacity="0.0"
     inkscape:pagecheckerboard="0"
     showgrid="false"
     fit-margin-top="0"
     fit-margin-left="0"
     fit-margin-right="0"
     fit-margin-bottom="0"
     inkscape:zoom="0.81054687"
     inkscape:cx="243.04578"
     inkscape:cy="504.59759"
     inkscape:window-width="1920"
     inkscape:window-height="1012"
     inkscape:window-x="0"
     inkscape:window-y="0"
     inkscape:window-maximized="1"
     inkscape:current-layer="svg12" />
  <rect
     style="fill:#282828;fill-opacity:1;stroke-width:2.06758;paint-order:stroke fill markers"
     id="rect1017"
     width="1058.708"
     height="1037.2606"
     x="-130.20477"
     y="-145.18158" />
  <path
     d="m 503.05301,351.8 m -129.5,0 a 129.5,129.5 0 1 0 259,0 129.5,129.5 0 1 0 -259,0 z"
     fill="#f4ce26"
     id="path2" />
  <path
     d="m 503.05301,507.6 c -85.9,0 -155.8,-69.9 -155.8,-155.8 0,-85.9 69.9,-155.8 155.8,-155.8 85.9,0 155.8,69.9 155.8,155.8 0,85.9 -69.9,155.8 -155.8,155.8 z m 0,-258.9 c -56.8,0 -103.1,46.2 -103.1,103.1 0,56.9 46.3,103.1 103.1,103.1 56.8,0 103,-46.3 103,-103.2 0,-56.9 -46.2,-103 -103,-103 z"
     fill="#333333"
     id="path4"
     style="fill:#f3ce26;fill-opacity:1" />
  <path
     d="m 383.45301,98.2 c 11.8,-6.8 26.9,-2.8 33.7,9 l 24.7,42.7 c 6.8,11.8 2.8,26.9 -9,33.7 -11.8,6.8 -26.9,2.8 -33.7,-9 l -24.7,-42.7 c -6.9,-11.9 -2.8,-26.9 9,-33.7 z m 305.7,208.4 c 3.5,13.2 17,21 30.2,17.4 l 47.6,-12.8 c 13.2,-3.5 21,-17 17.4,-30.2 -3.5,-13.2 -17,-21 -30.2,-17.4 l -47.6,12.8 c -13.1,3.5 -20.9,17 -17.4,30.2 z m -13.2,110.9 c -3.5,13.2 4.3,26.7 17.4,30.2 l 47.6,12.8 c 13.2,3.5 26.7,-4.3 30.2,-17.4 3.5,-13.2 -4.3,-26.7 -17.4,-30.2 l -47.6,-12.8 c -13.1,-3.5 -26.6,4.3 -30.2,17.4 z M 547.05301,62 c 13.6,0 24.7,11 24.7,24.7 V 136 c 0,13.6 -11,24.7 -24.7,24.7 -13.6,0 -24.7,-11 -24.7,-24.7 V 86.7 c 0,-13.6 11,-24.7 24.7,-24.7 z m 167.1,69.5 c -9.6,-9.6 -25.2,-9.6 -34.9,0 l -34.9,34.9 c -9.6,9.6 -9.6,25.2 0,34.9 9.6,9.6 25.2,9.6 34.9,0 l 34.9,-34.9 c 9.7,-9.7 9.7,-25.3 0,-34.9 z"
     fill="#333333"
     id="path6"
     style="fill:#f3ce26;fill-opacity:1;stroke-width:1;stroke-miterlimit:4;stroke-dasharray:none" />
  <path
     d="m 145.85301,641 c -2.2,0.2 -4.3,0.4 -6.5,0.5 -60.5,3.4 -111,-49.7 -111,-111 0,-61.3 49.7,-111 111,-111 4.2,0 8.4,0.2 12.5,0.7 -0.1,-2.3 -0.1,-4.6 -0.1,-6.9 0,-85.1 69,-154.1 154.1,-154.1 75.2,0 137.8,53.8 151.4,125 6.9,-1.1 14,-1.7 21.2,-1.7 71.5,0 129.5,58 129.5,129.5 -0.2,45.7 -23.8,85.9 -59.6,108.9 -20.2,13 -44.2,21.3 -70,20.5 -3.5,-0.1 -6.9,-0.3 -10.3,-0.7 -1.1,0.1 -2.3,0.1 -3.4,0.1 h -318.8 z"
     fill="#ffffff"
     id="path8"
     style="fill:#b5b5b5;fill-opacity:1" />
  <path
     d="m 133.75301,668 c -32.4,0 -63.3,-12.5 -87.9,-35.8 -27.9,-26.4 -43.9000002,-63.5 -43.9000002,-101.7 0,-71.3 54.7000002,-130.2 124.3000002,-136.7 9.8,-90.3 86.5,-160.9 179.4,-160.9 78.4,0 147,50.6 171.2,123.3 h 1.4 c 86,0 155.9,69.9 155.9,155.8 0,53.3 -26.7,102.3 -71.5,131.1 -26.5,17.1 -56.1,25.6 -85.1,24.7 -3.4,-0.1 -6.7,-0.3 -10,-0.6 -1,0 -2,0.1 -3,0.1 h -317.4 c -2.1,0.2 -4.2,0.4 -6.3,0.5 -2.4,0.1 -4.7,0.2 -7.1,0.2 z m 5.5,-222.1 c -46.6,0 -84.6,38 -84.6,84.6 0,23.8 10,46.9 27.4,63.4 15.7,14.9 35.7,22.5 55.7,21.2 1.7,-0.1 3.5,-0.2 5.2,-0.4 l 2.8,-0.2 h 324.9 c 2.8,0.3 5.6,0.5 8.4,0.6 23.2,0.8 42.8,-8.5 54.9,-16.4 29.8,-19 47.5,-51.4 47.5,-86.7 0,-56.8 -46.3,-103.1 -103.1,-103.1 -5.7,0 -11.4,0.5 -16.9,1.4 l -25.4,4.2 -4.8,-25.3 c -11.5,-60 -64.2,-103.6 -125.5,-103.6 -70.5,0 -127.8,57.3 -127.8,127.8 0,1.9 0,3.8 0.1,5.7 l 1.4,30.9 -30.7,-3.5 c -3.1,-0.4 -6.2,-0.6 -9.5,-0.6 z"
     fill="#333333"
     id="path10"
     style="fill:#b5b5b5;fill-opacity:1;stroke-width:1;stroke-miterlimit:4;stroke-dasharray:none" />
</svg>
